<svg width="495" height="626" viewBox="0 0 495 626" fill="none" xmlns="http://www.w3.org/2000/svg">
<path d="M249 625.8C300.086 625.8 341.5 618.099 341.5 608.6C341.5 599.101 300.086 591.4 249 591.4C197.914 591.4 156.5 599.101 156.5 608.6C156.5 618.099 197.914 625.8 249 625.8Z" fill="#430B48"/>
<path d="M220 492.1C196.5 492.1 177.5 509.5 177.5 531.1V532.5C177.5 574.6 208.8 608.6 247.4 608.6C286 608.6 317.3 574.5 317.3 532.5V531.1C317.3 509.6 298.3 492.1 274.8 492.1H220Z" fill="#E0E0E0"/>
<path d="M247.5 519.5C274.728 519.5 296.8 513.366 296.8 505.8C296.8 498.234 274.728 492.1 247.5 492.1C220.272 492.1 198.2 498.234 198.2 505.8C198.2 513.366 220.272 519.5 247.5 519.5Z" fill="#CFC3D8"/>
<path d="M247.5 514.7C267.824 514.7 284.3 510.133 284.3 504.5C284.3 498.867 267.824 494.3 247.5 494.3C227.176 494.3 210.7 498.867 210.7 504.5C210.7 510.133 227.176 514.7 247.5 514.7Z" fill="#430B48"/>
<path d="M247.5 576.5C212.6 576.5 183.7 559.7 178.4 523.3C177.8 525.8 177.5 528.4 177.5 531.1V532.5C177.5 574.6 208.8 608.6 247.4 608.6C286 608.6 317.3 574.5 317.3 532.5V531.1C317.3 528.4 317 525.8 316.4 523.3C311.3 559.7 282.4 576.5 247.5 576.5Z" fill="#CFC3D8"/>
<path d="M220 492.1C196.5 492.1 177.5 509.5 177.5 531.1V532.5C177.5 574.6 208.8 608.6 247.4 608.6C286 608.6 317.3 574.5 317.3 532.5V531.1C317.3 509.6 298.3 492.1 274.8 492.1H220Z" stroke="#430B48" stroke-width="8" stroke-miterlimit="10" stroke-linecap="round" stroke-linejoin="round"/>
<path d="M357.3 116.9H393.3" stroke="#430B48" stroke-width="8" stroke-miterlimit="10" stroke-linecap="round" stroke-linejoin="round"/>
<path d="M409.3 132.9C418.137 132.9 425.3 125.736 425.3 116.9C425.3 108.063 418.137 100.9 409.3 100.9C400.463 100.9 393.3 108.063 393.3 116.9C393.3 125.736 400.463 132.9 409.3 132.9Z" fill="#BFB0CC"/>
<path d="M409.3 132.9C418.137 132.9 425.3 125.736 425.3 116.9C425.3 108.063 418.137 100.9 409.3 100.9C400.463 100.9 393.3 108.063 393.3 116.9C393.3 125.736 400.463 132.9 409.3 132.9Z" stroke="#430B48" stroke-width="8" stroke-miterlimit="10" stroke-linecap="round" stroke-linejoin="round"/>
<path d="M370.8 354.3C369.9 346.8 370.2 339.3 371.6 331.9C372.5 328.1 376.6 325.1 380.2 325.3C383.9 325.4 387.7 328.6 388.4 332.5C389.3 340 389 347.5 387.6 354.9C386.7 358.7 382.6 361.7 379 361.5C375.3 361.4 371.4 358.2 370.8 354.3Z" fill="#4B1151"/>
<path d="M392.1 353.9C389.6 347 388 339.7 387.8 332.3C387.7 328.5 391 324.7 394.6 324C398.2 323.3 402.6 325.5 404 329.1C406.7 336 408.1 343.3 408.3 350.7C408.4 354.5 405.1 358.3 401.5 359C398 359.7 393.6 357.5 392.1 353.9Z" fill="#430B48"/>
<path d="M412.4 348.8C408.4 342.8 405.2 336.2 403.3 329.2C402.3 325.6 404.6 321.2 407.8 319.8C411.2 318.3 415.8 319.3 417.9 322.4C422 328.3 425.1 335 427 342C428 345.6 425.7 350 422.5 351.4C419.3 352.9 414.6 351.8 412.4 348.8Z" fill="#4B1151"/>
<path d="M430.6 339.3C425.4 334.5 420.9 328.9 417.5 322.7C415.7 319.4 417 314.8 419.7 312.7C422.7 310.4 427.2 310.5 430 312.9C435.3 317.6 439.7 323.3 443.1 329.5C444.9 332.8 443.6 337.4 440.9 339.5C438.1 341.7 433.4 341.7 430.6 339.3Z" fill="#4B1151"/>
<path d="M446.1 326.1C440.1 322.7 434.5 318.4 429.9 313.2C427.5 310.5 427.6 305.8 429.7 303.2C432.1 300.3 436.3 299.4 439.5 301.1C445.6 304.4 451.1 308.8 455.7 314C458.1 316.7 458 321.4 455.9 324C453.8 326.7 449.3 327.8 446.1 326.1Z" fill="#4B1151"/>
<path d="M458.3 309.7C451.8 307.8 445.5 305 439.9 301.1C437 299.1 436 294.6 437.4 291.6C439.1 288.2 442.8 286.4 446.3 287.4C452.9 289.2 459.1 292.1 464.7 296C467.6 298 468.6 302.5 467.2 305.5C465.8 308.5 461.7 310.6 458.3 309.7Z" fill="#4B1151"/>
<path d="M466.5 290.7C459.8 290.4 453.2 289.3 447 286.9C443.8 285.7 441.8 281.6 442.4 278.4C443.3 274.6 446.4 272.2 449.8 272.3C456.5 272.4 463.1 273.7 469.3 276.1C472.5 277.3 474.5 281.4 473.9 284.6C473.4 287.7 470 290.7 466.5 290.7Z" fill="#4B1151"/>
<path d="M469.3 271.1C462.8 271.5 456.3 270.9 450 269.3C446.7 268.3 444.4 264.7 444.7 261.5C445.2 257.6 448 255.2 451.4 254.8C457.9 254.4 464.4 255 470.7 256.6C474 257.6 476.3 261.2 476 264.4C475.7 267.6 472.7 270.8 469.3 271.1Z" fill="#4B1151"/>
<path d="M370.8 354.3C369.9 346.8 370.2 339.3 371.6 331.9C372.5 328.1 376.6 325.1 380.2 325.3C383.9 325.4 387.7 328.6 388.4 332.5C389.3 340 389 347.5 387.6 354.9C386.7 358.7 382.6 361.7 379 361.5C375.3 361.4 371.4 358.2 370.8 354.3Z" stroke="#430B48" stroke-width="6" stroke-miterlimit="10" stroke-linecap="round" stroke-linejoin="round"/>
<path d="M392.1 353.9C389.6 347 388 339.7 387.8 332.3C387.7 328.5 391 324.7 394.6 324C398.2 323.3 402.6 325.5 404 329.1C406.7 336 408.1 343.3 408.3 350.7C408.4 354.5 405.1 358.3 401.5 359C398 359.7 393.6 357.5 392.1 353.9Z" stroke="#430B48" stroke-width="6" stroke-miterlimit="10" stroke-linecap="round" stroke-linejoin="round"/>
<path d="M412.4 348.8C408.4 342.8 405.2 336.2 403.3 329.2C402.3 325.6 404.6 321.2 407.8 319.8C411.2 318.3 415.8 319.3 417.9 322.4C422 328.3 425.1 335 427 342C428 345.6 425.7 350 422.5 351.4C419.3 352.9 414.6 351.8 412.4 348.8Z" stroke="#430B48" stroke-width="6" stroke-miterlimit="10" stroke-linecap="round" stroke-linejoin="round"/>
<path d="M430.6 339.3C425.4 334.5 420.9 328.9 417.5 322.7C415.7 319.4 417 314.8 419.7 312.7C422.7 310.4 427.2 310.5 430 312.9C435.3 317.6 439.7 323.3 443.1 329.5C444.9 332.8 443.6 337.4 440.9 339.5C438.1 341.7 433.4 341.7 430.6 339.3Z" stroke="#430B48" stroke-width="6" stroke-miterlimit="10" stroke-linecap="round" stroke-linejoin="round"/>
<path d="M446.1 326.1C440.1 322.7 434.5 318.4 429.9 313.2C427.5 310.5 427.6 305.8 429.7 303.2C432.1 300.3 436.3 299.4 439.5 301.1C445.6 304.4 451.1 308.8 455.7 314C458.1 316.7 458 321.4 455.9 324C453.8 326.7 449.3 327.8 446.1 326.1Z" stroke="#430B48" stroke-width="6" stroke-miterlimit="10" stroke-linecap="round" stroke-linejoin="round"/>
<path d="M458.3 309.7C451.8 307.8 445.5 305 439.9 301.1C437 299.1 436 294.6 437.4 291.6C439.1 288.2 442.8 286.4 446.3 287.4C452.9 289.2 459.1 292.1 464.7 296C467.6 298 468.6 302.5 467.2 305.5C465.8 308.5 461.7 310.6 458.3 309.7Z" stroke="#430B48" stroke-width="6" stroke-miterlimit="10" stroke-linecap="round" stroke-linejoin="round"/>
<path d="M466.5 290.7C459.8 290.4 453.2 289.3 447 286.9C443.8 285.7 441.8 281.6 442.4 278.4C443.3 274.6 446.4 272.2 449.8 272.3C456.5 272.4 463.1 273.7 469.3 276.1C472.5 277.3 474.5 281.4 473.9 284.6C473.4 287.7 470 290.7 466.5 290.7Z" stroke="#430B48" stroke-width="6" stroke-miterlimit="10" stroke-linecap="round" stroke-linejoin="round"/>
<path d="M469.3 271.1C462.8 271.5 456.3 270.9 450 269.3C446.7 268.3 444.4 264.7 444.7 261.5C445.2 257.6 448 255.2 451.4 254.8C457.9 254.4 464.4 255 470.7 256.6C474 257.6 476.3 261.2 476 264.4C475.7 267.6 472.7 270.8 469.3 271.1Z" stroke="#430B48" stroke-width="6" stroke-miterlimit="10" stroke-linecap="round" stroke-linejoin="round"/>
<path d="M471.6 203.5V223C471.6 228.3 467.3 232.6 462 232.6C456.7 232.6 452.4 228.3 452.4 223V210.2H433.1V226.6C433.1 242.6 446 255.5 462 255.5C478 255.5 490.9 242.6 490.9 226.6V203.5H471.6Z" fill="#CFC3D8"/>
<path d="M456.2 230.7C453.9 228.9 452.4 226.2 452.4 223.1V214.8C452.4 214 452.3 213.1 452.3 212.3C452.3 211.6 452.3 211 452.3 210.3H433.1V226.7C433.1 242.7 446 255.6 462 255.6C467.2 255.6 472.1 254.2 476.3 251.8C467.5 247.5 460.3 240 456.2 230.7Z" fill="#BFB0CC"/>
<path d="M471.6 203.5V223C471.6 228.3 467.3 232.6 462 232.6C456.7 232.6 452.4 228.3 452.4 223V210.2H433.1V226.6C433.1 242.6 446 255.5 462 255.5C478 255.5 490.9 242.6 490.9 226.6V203.5H471.6Z" stroke="#430B48" stroke-width="8" stroke-miterlimit="10" stroke-linecap="round" stroke-linejoin="round"/>
<path d="M124.2 354.3C125.1 346.8 124.8 339.3 123.4 331.9C122.5 328.1 118.4 325.1 114.8 325.3C111.1 325.4 107.3 328.6 106.6 332.5C105.7 340 106 347.5 107.4 354.9C108.3 358.7 112.4 361.7 116 361.5C119.7 361.4 123.6 358.2 124.2 354.3Z" fill="#4B1151"/>
<path d="M102.8 353.9C105.3 347 106.9 339.7 107.1 332.3C107.2 328.5 103.9 324.7 100.3 324C96.7 323.3 92.3 325.5 90.9 329.1C88.2 336 86.8 343.3 86.6 350.7C86.5 354.5 89.8 358.3 93.4 359C97 359.7 101.4 357.5 102.8 353.9Z" fill="#430B48"/>
<path d="M82.6 348.8C86.6 342.8 89.8001 336.2 91.7001 329.2C92.7001 325.6 90.4001 321.2 87.2001 319.8C83.8001 318.3 79.2 319.3 77.1 322.4C73 328.3 69.9001 335 68.0001 342C67.0001 345.6 69.3001 350 72.5001 351.4C75.6001 352.9 80.4 351.8 82.6 348.8Z" fill="#4B1151"/>
<path d="M64.4 339.3C69.6 334.5 74.1 328.9 77.5 322.7C79.3 319.4 78 314.8 75.3 312.7C72.3 310.4 67.8 310.5 65 312.9C59.7 317.6 55.3 323.3 51.9 329.5C50.1 332.8 51.4 337.4 54.1 339.5C56.8 341.7 61.6 341.7 64.4 339.3Z" fill="#4B1151"/>
<path d="M48.9001 326.1C54.9001 322.7 60.5 318.4 65.1 313.2C67.5 310.5 67.4 305.8 65.3 303.2C62.9 300.3 58.7001 299.4 55.5001 301.1C49.4001 304.4 43.9 308.8 39.3 314C36.9 316.7 37 321.4 39.1 324C41.2 326.7 45.7001 327.8 48.9001 326.1Z" fill="#4B1151"/>
<path d="M36.7001 309.7C43.2001 307.8 49.5001 305 55.1001 301.1C58.0001 299.1 59.0001 294.6 57.6001 291.6C55.9001 288.2 52.2001 286.4 48.7001 287.4C42.1001 289.2 35.9001 292.1 30.3001 296C27.4001 298 26.4001 302.5 27.8001 305.5C29.2001 308.5 33.2001 310.6 36.7001 309.7Z" fill="#4B1151"/>
<path d="M28.4 290.7C35.1 290.4 41.7 289.3 47.9 286.9C51.1 285.7 53.1 281.6 52.5 278.4C51.6 274.6 48.5 272.2 45.1 272.3C38.4 272.4 31.8 273.7 25.6 276.1C22.4 277.3 20.4 281.4 21 284.6C21.6 287.7 25 290.7 28.4 290.7Z" fill="#4B1151"/>
<path d="M25.6 271.1C32.1 271.5 38.6001 270.9 44.9001 269.3C48.2001 268.3 50.5 264.7 50.2 261.5C49.7 257.6 46.9001 255.2 43.5001 254.8C37.0001 254.4 30.5 255 24.2 256.6C20.9 257.6 18.6001 261.2 18.9001 264.4C19.3001 267.6 22.2 270.8 25.6 271.1Z" fill="#4B1151"/>
<path d="M124.2 354.3C125.1 346.8 124.8 339.3 123.4 331.9C122.5 328.1 118.4 325.1 114.8 325.3C111.1 325.4 107.3 328.6 106.6 332.5C105.7 340 106 347.5 107.4 354.9C108.3 358.7 112.4 361.7 116 361.5C119.7 361.4 123.6 358.2 124.2 354.3Z" stroke="#430B48" stroke-width="6" stroke-miterlimit="10" stroke-linecap="round" stroke-linejoin="round"/>
<path d="M102.8 353.9C105.3 347 106.9 339.7 107.1 332.3C107.2 328.5 103.9 324.7 100.3 324C96.7 323.3 92.3 325.5 90.9 329.1C88.2 336 86.8 343.3 86.6 350.7C86.5 354.5 89.8 358.3 93.4 359C97 359.7 101.4 357.5 102.8 353.9Z" stroke="#430B48" stroke-width="6" stroke-miterlimit="10" stroke-linecap="round" stroke-linejoin="round"/>
<path d="M82.6 348.8C86.6 342.8 89.8001 336.2 91.7001 329.2C92.7001 325.6 90.4001 321.2 87.2001 319.8C83.8001 318.3 79.2 319.3 77.1 322.4C73 328.3 69.9001 335 68.0001 342C67.0001 345.6 69.3001 350 72.5001 351.4C75.6001 352.9 80.4 351.8 82.6 348.8Z" stroke="#430B48" stroke-width="6" stroke-miterlimit="10" stroke-linecap="round" stroke-linejoin="round"/>
<path d="M64.4 339.3C69.6 334.5 74.1 328.9 77.5 322.7C79.3 319.4 78 314.8 75.3 312.7C72.3 310.4 67.8 310.5 65 312.9C59.7 317.6 55.3 323.3 51.9 329.5C50.1 332.8 51.4 337.4 54.1 339.5C56.8 341.7 61.6 341.7 64.4 339.3Z" stroke="#430B48" stroke-width="6" stroke-miterlimit="10" stroke-linecap="round" stroke-linejoin="round"/>
<path d="M48.9001 326.1C54.9001 322.7 60.5 318.4 65.1 313.2C67.5 310.5 67.4 305.8 65.3 303.2C62.9 300.3 58.7001 299.4 55.5001 301.1C49.4001 304.4 43.9 308.8 39.3 314C36.9 316.7 37 321.4 39.1 324C41.2 326.7 45.7001 327.8 48.9001 326.1Z" stroke="#430B48" stroke-width="6" stroke-miterlimit="10" stroke-linecap="round" stroke-linejoin="round"/>
<path d="M36.7001 309.7C43.2001 307.8 49.5001 305 55.1001 301.1C58.0001 299.1 59.0001 294.6 57.6001 291.6C55.9001 288.2 52.2001 286.4 48.7001 287.4C42.1001 289.2 35.9001 292.1 30.3001 296C27.4001 298 26.4001 302.5 27.8001 305.5C29.2001 308.5 33.2001 310.6 36.7001 309.7Z" stroke="#430B48" stroke-width="6" stroke-miterlimit="10" stroke-linecap="round" stroke-linejoin="round"/>
<path d="M28.4 290.7C35.1 290.4 41.7 289.3 47.9 286.9C51.1 285.7 53.1 281.6 52.5 278.4C51.6 274.6 48.5 272.2 45.1 272.3C38.4 272.4 31.8 273.7 25.6 276.1C22.4 277.3 20.4 281.4 21 284.6C21.6 287.7 25 290.7 28.4 290.7Z" stroke="#430B48" stroke-width="6" stroke-miterlimit="10" stroke-linecap="round" stroke-linejoin="round"/>
<path d="M25.6 271.1C32.1 271.5 38.6001 270.9 44.9001 269.3C48.2001 268.3 50.5 264.7 50.2 261.5C49.7 257.6 46.9001 255.2 43.5001 254.8C37.0001 254.4 30.5 255 24.2 256.6C20.9 257.6 18.6001 261.2 18.9001 264.4C19.3001 267.6 22.2 270.8 25.6 271.1Z" stroke="#430B48" stroke-width="6" stroke-miterlimit="10" stroke-linecap="round" stroke-linejoin="round"/>
<path d="M23.3 203.5V223C23.3 228.3 27.6 232.6 32.9 232.6C38.2 232.6 42.5 228.3 42.5 223V210.2H61.8V226.6C61.8 242.6 48.9 255.5 32.9 255.5C16.9 255.5 4 242.6 4 226.6V203.5H23.3Z" fill="#CFC3D8"/>
<path d="M38.8 230.7C41.1 228.9 42.5999 226.2 42.5999 223.1V214.8C42.5999 214 42.7 213.1 42.7 212.3C42.7 211.6 42.7 211 42.7 210.3H61.9V226.7C61.9 242.7 49 255.6 33 255.6C27.8 255.6 22.9 254.2 18.7 251.8C27.5 247.5 34.7 240 38.8 230.7Z" fill="#BFB0CC"/>
<path d="M23.3 203.5V223C23.3 228.3 27.6 232.6 32.9 232.6C38.2 232.6 42.5 228.3 42.5 223V210.2H61.8V226.6C61.8 242.6 48.9 255.5 32.9 255.5C16.9 255.5 4 242.6 4 226.6V203.5H23.3Z" stroke="#430B48" stroke-width="8" stroke-miterlimit="10" stroke-linecap="round" stroke-linejoin="round"/>
<path d="M353.5 157.9H337.5V75.8999H353.5C357.9 75.8999 361.5 79.4999 361.5 83.8999V149.9C361.5 154.4 357.9 157.9 353.5 157.9Z" fill="#BFB0CC"/>
<path d="M353.5 75.8999H337.5V86.8999H353.5C357.9 86.8999 361.5 90.4999 361.5 94.8999V83.8999C361.5 79.4999 357.9 75.8999 353.5 75.8999Z" fill="white"/>
<path d="M353.5 157.9H337.5V75.8999H353.5C357.9 75.8999 361.5 79.4999 361.5 83.8999V149.9C361.5 154.4 357.9 157.9 353.5 157.9Z" stroke="#430B48" stroke-width="8" stroke-miterlimit="10" stroke-linecap="round" stroke-linejoin="round"/>
<path d="M137.7 116.9H101.7" stroke="#430B48" stroke-width="8" stroke-miterlimit="10" stroke-linecap="round" stroke-linejoin="round"/>
<path d="M85.7 132.9C94.5365 132.9 101.7 125.736 101.7 116.9C101.7 108.063 94.5365 100.9 85.7 100.9C76.8634 100.9 69.7 108.063 69.7 116.9C69.7 125.736 76.8634 132.9 85.7 132.9Z" fill="#BFB0CC"/>
<path d="M85.7 132.9C94.5365 132.9 101.7 125.736 101.7 116.9C101.7 108.063 94.5365 100.9 85.7 100.9C76.8634 100.9 69.7 108.063 69.7 116.9C69.7 125.736 76.8634 132.9 85.7 132.9Z" stroke="#430B48" stroke-width="8" stroke-miterlimit="10" stroke-linecap="round" stroke-linejoin="round"/>
<path d="M141.5 157.9H157.5V75.8999H141.5C137.1 75.8999 133.5 79.4999 133.5 83.8999V149.9C133.5 154.4 137.1 157.9 141.5 157.9Z" fill="#BFB0CC"/>
<path d="M141.5 75.8999C137.1 75.8999 133.5 79.4999 133.5 83.8999V94.8999C133.5 90.4999 137.1 86.8999 141.5 86.8999H157.5V75.8999H141.5Z" fill="#E6EEF1"/>
<path d="M141.5 157.9H157.5V75.8999H141.5C137.1 75.8999 133.5 79.4999 133.5 83.8999V149.9C133.5 154.4 137.1 157.9 141.5 157.9Z" stroke="#430B48" stroke-width="8" stroke-miterlimit="10" stroke-linecap="round" stroke-linejoin="round"/>
<path d="M353.5 157.9H337.5V75.8999H353.5C357.9 75.8999 361.5 79.4999 361.5 83.8999V149.9C361.5 154.4 357.9 157.9 353.5 157.9Z" stroke="#430B48" stroke-width="8" stroke-miterlimit="10" stroke-linecap="round" stroke-linejoin="round"/>
<path d="M141.5 157.9H157.5V75.8999H141.5C137.1 75.8999 133.5 79.4999 133.5 83.8999V149.9C133.5 154.4 137.1 157.9 141.5 157.9Z" stroke="#430B48" stroke-width="8" stroke-miterlimit="10" stroke-linecap="round" stroke-linejoin="round"/>
<path d="M301.5 210.9H193.5C171.4 210.9 153.5 193 153.5 170.9V62.8999C153.5 40.7999 171.4 22.8999 193.5 22.8999H301.5C323.6 22.8999 341.5 40.7999 341.5 62.8999V170.9C341.5 193 323.6 210.9 301.5 210.9Z" fill="#E0E0E0"/>
<path d="M301.5 210.9H193.5C171.4 210.9 153.5 193 153.5 170.9V62.8999C153.5 40.7999 171.4 22.8999 193.5 22.8999H301.5C323.6 22.8999 341.5 40.7999 341.5 62.8999V170.9C341.5 193 323.6 210.9 301.5 210.9Z" fill="#E0E0E0"/>
<path d="M301.5 210.9H193.5C171.4 210.9 153.5 193 153.5 170.9V62.8999C153.5 40.7999 171.4 22.8999 193.5 22.8999H301.5C323.6 22.8999 341.5 40.7999 341.5 62.8999V170.9C341.5 193 323.6 210.9 301.5 210.9Z" fill="#E0E0E0"/>
<path d="M301.5 22.8999H193.5C171.4 22.8999 153.5 40.7999 153.5 62.8999V72.7999C153.5 50.6999 171.4 32.7999 193.5 32.7999H301.5C323.6 32.7999 341.5 50.6999 341.5 72.7999V62.8999C341.5 40.7999 323.6 22.8999 301.5 22.8999Z" fill="white"/>
<path d="M301.5 194.5H193.5C171.4 194.5 153.5 181.5 153.5 159.4V170.9C153.5 193 171.4 210.9 193.5 210.9H301.5C323.6 210.9 341.5 193 341.5 170.9V159.4C341.5 181.6 323.6 194.5 301.5 194.5Z" fill="#BFB0CC"/>
<path d="M301.5 210.9H193.5C171.4 210.9 153.5 193 153.5 170.9V62.8999C153.5 40.7999 171.4 22.8999 193.5 22.8999H301.5C323.6 22.8999 341.5 40.7999 341.5 62.8999V170.9C341.5 193 323.6 210.9 301.5 210.9Z" stroke="#430B48" stroke-width="8" stroke-miterlimit="10" stroke-linecap="round" stroke-linejoin="round"/>
<path d="M247.5 44.8999C269.591 44.8999 287.5 35.0502 287.5 22.8999C287.5 10.7496 269.591 0.899902 247.5 0.899902C225.409 0.899902 207.5 10.7496 207.5 22.8999C207.5 35.0502 225.409 44.8999 247.5 44.8999Z" fill="#FEA74A"/>
<path d="M247.5 44.8999C269.591 44.8999 287.5 35.0502 287.5 22.8999C287.5 10.7496 269.591 0.899902 247.5 0.899902C225.409 0.899902 207.5 10.7496 207.5 22.8999C207.5 35.0502 225.409 44.8999 247.5 44.8999Z" fill="#BBC6CC"/>
<path d="M247.5 41.8C269.591 41.8 287.5 33.3382 287.5 22.9C287.5 12.4618 269.591 4 247.5 4C225.409 4 207.5 12.4618 207.5 22.9C207.5 33.3382 225.409 41.8 247.5 41.8Z" fill="#E0E0E0"/>
<path d="M286.2 18.3999C283.2 28.8999 266.7 31.8999 246.7 31.8999C228.1 31.8999 212.5 29.9999 208 20.5999C207.7 21.6999 207.5 18.7999 207.5 19.9999C207.5 32.0999 225.4 41.8999 247.5 41.8999C269.6 41.8999 287.5 32.0999 287.5 19.9999C287.5 17.9999 287 20.0999 286.2 18.3999Z" fill="#BFB0CC"/>
<path d="M247.5 41.8C269.591 41.8 287.5 33.3382 287.5 22.9C287.5 12.4618 269.591 4 247.5 4C225.409 4 207.5 12.4618 207.5 22.9C207.5 33.3382 225.409 41.8 247.5 41.8Z" stroke="#430B48" stroke-width="8" stroke-miterlimit="10" stroke-linecap="round" stroke-linejoin="round"/>
<path d="M247.5 158.2C270.751 158.2 289.6 139.351 289.6 116.1C289.6 92.8488 270.751 74 247.5 74C224.249 74 205.4 92.8488 205.4 116.1C205.4 139.351 224.249 158.2 247.5 158.2Z" fill="#CFC3D8" stroke="#CFC3D8" stroke-width="8" stroke-miterlimit="10" stroke-linecap="round" stroke-linejoin="round"/>
<path d="M247.5 151.5C270.751 151.5 289.6 132.651 289.6 109.4C289.6 86.1486 270.751 67.2998 247.5 67.2998C224.249 67.2998 205.4 86.1486 205.4 109.4C205.4 132.651 224.249 151.5 247.5 151.5Z" fill="#E6EEF1"/>
<path d="M247.5 151.5C270.751 151.5 289.6 132.651 289.6 109.4C289.6 86.1486 270.751 67.2998 247.5 67.2998C224.249 67.2998 205.4 86.1486 205.4 109.4C205.4 132.651 224.249 151.5 247.5 151.5Z" stroke="#430B48" stroke-width="8" stroke-miterlimit="10" stroke-linecap="round" stroke-linejoin="round"/>
<path d="M246.7 139.7C258.243 139.7 267.6 130.343 267.6 118.8C267.6 107.257 258.243 97.8999 246.7 97.8999C235.157 97.8999 225.8 107.257 225.8 118.8C225.8 130.343 235.157 139.7 246.7 139.7Z" fill="#23B5E2"/>
<path d="M246.7 139.7C258.243 139.7 267.6 130.343 267.6 118.8C267.6 107.257 258.243 97.8999 246.7 97.8999C235.157 97.8999 225.8 107.257 225.8 118.8C225.8 130.343 235.157 139.7 246.7 139.7Z" stroke="#430B48" stroke-width="8" stroke-miterlimit="10" stroke-linecap="round" stroke-linejoin="round"/>
<path d="M246.7 129.9C252.83 129.9 257.8 124.93 257.8 118.8C257.8 112.67 252.83 107.7 246.7 107.7C240.57 107.7 235.6 112.67 235.6 118.8C235.6 124.93 240.57 129.9 246.7 129.9Z" fill="#430B48"/>
<path d="M291.7 178.5V186.5" stroke="#BBC6CC" stroke-width="8" stroke-miterlimit="10" stroke-linecap="round" stroke-linejoin="round"/>
<path d="M276.9 176.9V188.2" stroke="#BBC6CC" stroke-width="8" stroke-miterlimit="10" stroke-linecap="round" stroke-linejoin="round"/>
<path d="M262.2 175.2V189.9" stroke="#BBC6CC" stroke-width="8" stroke-miterlimit="10" stroke-linecap="round" stroke-linejoin="round"/>
<path d="M247.5 173.5V191.5" stroke="#BBC6CC" stroke-width="8" stroke-miterlimit="10" stroke-linecap="round" stroke-linejoin="round"/>
<path d="M203.3 178.5V186.5" stroke="#BBC6CC" stroke-width="8" stroke-miterlimit="10" stroke-linecap="round" stroke-linejoin="round"/>
<path d="M218 176.9V188.2" stroke="#BBC6CC" stroke-width="8" stroke-miterlimit="10" stroke-linecap="round" stroke-linejoin="round"/>
<path d="M232.8 175.2V189.9" stroke="#BBC6CC" stroke-width="8" stroke-miterlimit="10" stroke-linecap="round" stroke-linejoin="round"/>
<path d="M291.7 175.5V183.5" stroke="#430B48" stroke-width="8" stroke-miterlimit="10" stroke-linecap="round" stroke-linejoin="round"/>
<path d="M276.9 173.9V185.2" stroke="#430B48" stroke-width="8" stroke-miterlimit="10" stroke-linecap="round" stroke-linejoin="round"/>
<path d="M262.2 172.2V186.9" stroke="#430B48" stroke-width="8" stroke-miterlimit="10" stroke-linecap="round" stroke-linejoin="round"/>
<path d="M247.5 170.5V188.5" stroke="#430B48" stroke-width="8" stroke-miterlimit="10" stroke-linecap="round" stroke-linejoin="round"/>
<path d="M203.3 175.5V183.5" stroke="#430B48" stroke-width="8" stroke-miterlimit="10" stroke-linecap="round" stroke-linejoin="round"/>
<path d="M218 173.9V185.2" stroke="#430B48" stroke-width="8" stroke-miterlimit="10" stroke-linecap="round" stroke-linejoin="round"/>
<path d="M232.8 172.2V186.9" stroke="#430B48" stroke-width="8" stroke-miterlimit="10" stroke-linecap="round" stroke-linejoin="round"/>
<path d="M263.5 210.9H231.5V254.9H263.5V210.9Z" fill="#CFC3D8"/>
<path d="M263.5 210.9H231.5V227.3H263.5V210.9Z" fill="#430B48"/>
<path d="M263.5 210.9H231.5V254.9H263.5V210.9Z" stroke="#430B48" stroke-width="8" stroke-miterlimit="10" stroke-linecap="round" stroke-linejoin="round"/>
<path d="M383.1 362C364.7 412 333.7 455.9 294 489.9C267.3 512.8 227.7 512.8 201 489.9C161.3 455.9 130.3 412 111.9 362C97.4 322.7 119.2 279.6 159.3 267.7C187.2 259.4 216.8 254.9 247.5 254.9C278.2 254.9 307.7 259.4 335.7 267.7C375.8 279.6 397.6 322.7 383.1 362Z" fill="#E0E0E0"/>
<path d="M383.1 362C364.7 412 333.7 455.9 294 489.9C267.3 512.8 227.7 512.8 201 489.9C161.3 455.9 130.3 412 111.9 362C97.4 322.7 119.2 279.6 159.3 267.7C187.2 259.4 216.8 254.9 247.5 254.9C278.2 254.9 307.7 259.4 335.7 267.7C375.8 279.6 397.6 322.7 383.1 362Z" fill="#E0E0E0"/>
<path d="M159.3 275.7C187.2 267.4 216.8 262.9 247.5 262.9C278.2 262.9 307.7 267.4 335.7 275.7C366 284.7 385.8 311.4 387.5 340.9C389.3 308.4 368.7 277.5 335.7 267.7C307.8 259.4 278.2 254.9 247.5 254.9C216.8 254.9 187.3 259.4 159.3 267.7C126.3 277.5 105.7 308.4 107.5 340.9C109.2 311.5 129 284.7 159.3 275.7Z" fill="white"/>
<path d="M296.1 455.8C268.2 478.7 226.7 478.7 198.8 455.8C158.6 422.9 127 380.8 107.5 332.9C107 342.5 108.3 352.4 111.9 362C130.3 412 161.3 455.9 201 489.9C227.7 512.8 267.3 512.8 294 489.9C333.7 455.9 364.7 412 383.1 362C386.7 352.4 388 342.5 387.5 332.9C368 380.8 336.3 422.9 296.1 455.8Z" fill="#CFC3D8"/>
<path d="M383.1 362C364.7 412 333.7 455.9 294 489.9C267.3 512.8 227.7 512.8 201 489.9C161.3 455.9 130.3 412 111.9 362C97.4 322.7 119.2 279.6 159.3 267.7C187.2 259.4 216.8 254.9 247.5 254.9C278.2 254.9 307.7 259.4 335.7 267.7C375.8 279.6 397.6 322.7 383.1 362Z" stroke="#430B48" stroke-width="8" stroke-miterlimit="10" stroke-linecap="round" stroke-linejoin="round"/>
<path d="M291.8 384.8H203.1C196.7 384.8 191.4 379.6 191.4 373.1V332.4C191.4 326 196.6 320.7 203.1 320.7H291.8C298.2 320.7 303.5 325.9 303.5 332.4V373.1C303.5 379.6 298.3 384.8 291.8 384.8Z" fill="url(#paint0_linear_2019_323)"/>
<path d="M191.5 366.8L205.6 342.6L217 376.4L233.1 339.7L245.6 366.1L254.6 332.1L271 376.4L285.7 340.2L303.5 366.1" stroke="#3A3A3A" stroke-width="4" stroke-miterlimit="10" stroke-linecap="round" stroke-linejoin="round"/>
<path opacity="0.3" d="M293.4 340.9H201.5C195.9 340.9 191.4 336.4 191.4 330.8C191.4 325.2 195.9 320.7 201.5 320.7H293.4C299 320.7 303.5 325.2 303.5 330.8C303.5 336.4 299 340.9 293.4 340.9Z" fill="white"/>
<path d="M291.8 384.8H203.1C196.7 384.8 191.4 379.6 191.4 373.1V332.4C191.4 326 196.6 320.7 203.1 320.7H291.8C298.2 320.7 303.5 325.9 303.5 332.4V373.1C303.5 379.6 298.3 384.8 291.8 384.8Z" stroke="#430B48" stroke-width="6" stroke-miterlimit="10" stroke-linecap="round" stroke-linejoin="round"/>
<path d="M247.5 22.9C254.956 22.9 261 20.3928 261 17.3C261 14.2072 254.956 11.7 247.5 11.7C240.044 11.7 234 14.2072 234 17.3C234 20.3928 240.044 22.9 247.5 22.9Z" fill="white"/>
<path d="M246.2 115.8C249.679 115.8 252.5 113.606 252.5 110.9C252.5 108.194 249.679 106 246.2 106C242.721 106 239.9 108.194 239.9 110.9C239.9 113.606 242.721 115.8 246.2 115.8Z" fill="#E6EEF1"/>
<path d="M410.9 115.9C413.772 115.9 416.1 114.109 416.1 111.9C416.1 109.691 413.772 107.9 410.9 107.9C408.028 107.9 405.7 109.691 405.7 111.9C405.7 114.109 408.028 115.9 410.9 115.9Z" fill="white"/>
<path d="M84.1 115.9C86.9719 115.9 89.3 114.109 89.3 111.9C89.3 109.691 86.9719 107.9 84.1 107.9C81.2281 107.9 78.9 109.691 78.9 111.9C78.9 114.109 81.2281 115.9 84.1 115.9Z" fill="white"/>
<path d="M248.1 419.2C254.562 419.2 259.8 413.962 259.8 407.5C259.8 401.038 254.562 395.8 248.1 395.8C241.638 395.8 236.4 401.038 236.4 407.5C236.4 413.962 241.638 419.2 248.1 419.2Z" fill="#CFC3D8"/>
<path d="M248.1 419.2C254.562 419.2 259.8 413.962 259.8 407.5C259.8 401.038 254.562 395.8 248.1 395.8C241.638 395.8 236.4 401.038 236.4 407.5C236.4 413.962 241.638 419.2 248.1 419.2Z" stroke="#430B48" stroke-width="4" stroke-miterlimit="10" stroke-linecap="round" stroke-linejoin="round"/>
<path d="M254.6 405.1L253.3 402.9C253.1 402.6 252.7 402.4 252.3 402.6C251.2 403.2 249.9 402.4 249.9 401.2C249.9 400.8 249.6 400.5 249.2 400.5H246.7C246.3 400.5 246 400.8 246 401.2C246 402.4 244.7 403.2 243.6 402.6C243.3 402.4 242.8 402.5 242.6 402.9L241.3 405.1C241.1 405.4 241.2 405.9 241.6 406.1C242.7 406.7 242.7 408.2 241.6 408.8C241.3 409 241.1 409.4 241.3 409.8L242.6 412C242.8 412.3 243.2 412.5 243.6 412.3C244.7 411.7 246 412.5 246 413.7C246 414.1 246.3 414.4 246.7 414.4H249.2C249.6 414.4 249.9 414.1 249.9 413.7C249.9 412.5 251.2 411.7 252.3 412.3C252.6 412.5 253.1 412.4 253.3 412L254.6 409.8C254.8 409.5 254.7 409 254.3 408.8C253.2 408.2 253.2 406.7 254.3 406.1C254.7 405.9 254.8 405.5 254.6 405.1Z" fill="#430B48"/>
<defs>
<linearGradient id="paint0_linear_2019_323" x1="247.486" y1="384.785" x2="247.486" y2="320.785" gradientUnits="userSpaceOnUse">
<stop stop-color="#57AA63"/>
<stop offset="1" stop-color="#9AA642"/>
</linearGradient>
</defs>
</svg>
